<?xml version="1.0" encoding="utf-8"?><!DOCTYPE svg PUBLIC "-//W3C//DTD SVG 1.1//EN" "http://www.w3.org/Graphics/SVG/1.1/DTD/svg11.dtd"><svg xmlns="http://www.w3.org/2000/svg" width="320" height="320" viewBox="0 0 35 35" shape-rendering="crispEdges"><path fill="#ffffff" d="M0 0h35v35H0z"/><path stroke="#000000" d="M3 3.5h7m1 0h3m4 0h1m1 0h2m3 0h7M3 4.5h1m5 0h1m2 0h1m2 0h7m3 0h1m5 0h1M3 5.5h1m1 0h3m1 0h1m2 0h4m3 0h1m1 0h2m2 0h1m1 0h3m1 0h1M3 6.5h1m1 0h3m1 0h1m1 0h1m2 0h2m1 0h1m3 0h1m3 0h1m1 0h3m1 0h1M3 7.5h1m1 0h3m1 0h1m2 0h1m3 0h3m3 0h1m2 0h1m1 0h3m1 0h1M3 8.5h1m5 0h1m4 0h3m1 0h1m1 0h1m1 0h1m2 0h1m5 0h1M3 9.5h7m1 0h1m1 0h1m1 0h1m1 0h1m1 0h1m1 0h1m1 0h1m1 0h7M13 10.5h2m1 0h1m1 0h4m1 0h1M5 11.5h1m1 0h3m1 0h1m2 0h2m2 0h2m1 0h2m1 0h1m3 0h1m2 0h1M4 12.5h2m1 0h1m2 0h1m1 0h2m1 0h5m1 0h2m1 0h1m1 0h1m1 0h2m1 0h1M3 13.5h2m1 0h1m2 0h4m2 0h3m1 0h3m2 0h1m1 0h2m1 0h3M3 14.5h3m2 0h1m1 0h4m6 0h1m1 0h1m2 0h3M4 15.5h6m1 0h3m1 0h1m1 0h5m1 0h1m1 0h1m4 0h2M3 16.5h2m1 0h1m3 0h1m1 0h2m3 0h1m6 0h3m1 0h4M3 17.5h1m3 0h5m2 0h1m1 0h3m1 0h2m2 0h1m4 0h3M5 18.5h2m3 0h1m3 0h1m2 0h5m1 0h5m3 0h1M3 19.5h1m1 0h2m1 0h2m3 0h1m1 0h1m1 0h2m1 0h1m1 0h3m3 0h1m2 0h1M4 20.5h1m1 0h3m2 0h3m3 0h8m5 0h2M3 21.5h1m1 0h2m1 0h5m2 0h1m1 0h4m1 0h3m1 0h6M4 22.5h4m2 0h2m2 0h4m1 0h3m1 0h1m1 0h2m1 0h1m1 0h2M3 23.5h1m1 0h1m3 0h2m1 0h1m2 0h1m4 0h8m3 0h1M11 24.5h1m1 0h1m3 0h1m3 0h3m3 0h2m1 0h2M3 25.5h7m4 0h3m2 0h5m1 0h1m1 0h1m1 0h3M3 26.5h1m5 0h1m1 0h2m3 0h5m2 0h1m3 0h1M3 27.5h1m1 0h3m1 0h1m1 0h1m1 0h1m4 0h2m3 0h6m1 0h2M3 28.5h1m1 0h3m1 0h1m2 0h1m3 0h1m1 0h3m2 0h1m3 0h1m1 0h1M3 29.5h1m1 0h3m1 0h1m1 0h3m1 0h1m1 0h3m2 0h2m3 0h1m3 0h1M3 30.5h1m5 0h1m2 0h2m2 0h2m1 0h2m3 0h1m2 0h1m2 0h1M3 31.5h7m2 0h5m3 0h2m1 0h3m1 0h1m2 0h2"/></svg>
